PathFileType	4	(x/y/z)	S05_P20_T24
DataRate	CameraRate	NumFrames	NumMarkers	Units	OrigDataRate	OrigDataStartFrame	OrigNumFrames
240	240	7	50	mm	240	223	356
Frame#	Time	Sternum			R.Acromium			L.Acromium			Top.Head			R.ASIS			L.ASIS			R.PSIS			L.PSIS			R.Great.Tro			L.Great.Tro			R.Iliac.Crest			L.Iliac.Crest			V.Sacral			R.Thigh.Upper.Post			R.Thigh.Lower.Ant			R.Thigh.Lower.Post			R.Thigh.Upper.Ant			R.Knee.Lat			R.Knee.Med			R.Shank.Upper.Post			R.Shank.Lower.Ant			R.Shank.Lower.Post			R.Shank.Upper.Ant			R.Ankle.Lat			R.Ankle.Med			R.Heel.Upper			R.Heel.Med			R.Heel.Lat			R.Toe.Lat			R.Toe.Med			R.Toe.Tip			L.Thigh.Upper.Post			L.Thigh.Lower.Ant			L.Thigh.Lower.Post			L.Thigh.Upper.Ant			L.Knee.Lat			L.Shank.Upper.Post			L.Shank.Lower.Ant			L.Shank.Lower.Post			L.Shank.Upper.Ant			L.Ankle.Lat			L.Ankle.Med			L.Heel.Upper			L.Heel.Med			L.Heel.Lat			L.Toe.Lat			L.Toe.Med			L.Toe.Tip			Cervical.Spine			Back			
		X1	Y1	Z1	X2	Y2	Z2	X3	Y3	Z3	X4	Y4	Z4	X5	Y5	Z5	X6	Y6	Z6	X7	Y7	Z7	X8	Y8	Z8	X9	Y9	Z9	X10	Y10	Z10	X11	Y11	Z11	X12	Y12	Z12	X13	Y13	Z13	X14	Y14	Z14	X15	Y15	Z15	X16	Y16	Z16	X17	Y17	Z17	X18	Y18	Z18	X19	Y19	Z19	X20	Y20	Z20	X21	Y21	Z21	X22	Y22	Z22	X23	Y23	Z23	X24	Y24	Z24	X25	Y25	Z25	X26	Y26	Z26	X27	Y27	Z27	X28	Y28	Z28	X29	Y29	Z29	X30	Y30	Z30	X31	Y31	Z31	X32	Y32	Z32	X33	Y33	Z33	X34	Y34	Z34	X35	Y35	Z35	X36	Y36	Z36	X37	Y37	Z37	X38	Y38	Z38	X39	Y39	Z39	X40	Y40	Z40	X41	Y41	Z41	X42	Y42	Z42	X43	Y43	Z43	X44	Y44	Z44	X45	Y45	Z45	X46	Y46	Z46	X47	Y47	Z47	X48	Y48	Z48	X49	Y49	Z49	X50	Y50	Z50	

223	0.925	-138.67	1257.1	347.18	-223.55	1520.3	510.12	-247.15	1534.9	183.4	-249.6	1816.7	330.73	-220.98	999.15	480.72	-195.97	1006.3	231.79	-411.41	1024.8	371.99	-401.01	1020	281.31	-317.36	927.67	531.86	-263.19	922.97	144.94	-305.4	1088.7	508.79	-283.6	1080.7	174.86	-421.14	989.07	339.51	-300.13	697.47	517.18	-259.22	618	466.48	-327.42	614.4	493.35	-234.37	700.37	493.58	-360.44	521.67	472.38	-349.13	509.5	338.84	-504.61	310.59	450.14	-463.08	230.77	449.57	-524.02	238.73	429.86	-441.91	304	467.37	-506.1	133.9	428.07	-487.22	159.47	340.25	-585.28	93.965	362.36	-577.71	60.063	336.17	-582.63	66.402	400.54	-424.56	36.014	466.51	-381.14	37.451	348.25	-319.5	46.796	396.84	-186.36	691.39	150.48	-89.888	649.1	184.81	-147.14	606.46	169.91	-121.84	733.06	167.96	-101.19	532.08	182.85	-100.73	323.22	184.18	-17.896	289.59	186.94	-79.185	255	203.69	-42.841	355.3	174.12	-3.6263	131.92	211.52	27.465	161.03	294.16	-39.266	64.867	267.54	-15.809	48.518	300.57	-27.134	38.809	240.89	141.45	94.562	175.18	163.89	122.29	290.58	215.36	153.27	231.81	-287.94	1559.8	356.04	-403.45	1283.8	352.92
224	0.92917	-133.11	1256.2	346.93	-218.13	1519.6	509.54	-241.65	1533.9	182.76	-244.27	1815.8	329.85	-215.34	998.47	480.68	-190.03	1005.4	231.75	-405.64	1023.9	371.57	-395.16	1019	280.9	-311.97	927.11	531.78	-257.17	921.88	144.89	-299.92	1088	508.57	-277.66	1079.6	174.59	-415.33	988.13	339.13	-295.39	696.92	517.47	-254.5	617.27	467.02	-322.78	613.85	493.7	-229.51	699.61	494.08	-356.23	521.21	472.73	-344.6	508.89	339.27	-502.21	311.38	450.38	-461.39	231.17	449.81	-522.25	239.7	430.04	-439.58	304.21	467.65	-505.3	134.61	428.24	-486.1	160.16	340.41	-584.81	95.308	362.5	-577.46	61.393	336.25	-582.31	67.631	400.66	-424.49	35.966	466.57	-381.04	37.45	348.31	-319.41	46.597	396.89	-181.25	690.14	150.68	-85.015	647.49	185.26	-142.4	605.06	170.23	-116.59	731.56	168.23	-96.608	530.62	183.1	-95.532	321.68	184.45	-12.585	288.32	187.19	-73.744	253.53	203.96	-37.759	353.95	174.38	2.3565	130.75	211.76	33.379	159.98	294.36	-33.029	63.784	267.85	-9.4856	47.47	300.86	-20.83	37.757	241.19	147.54	93.878	175.4	169.94	121.72	290.76	221.26	152.87	231.97	-282.48	1558.9	355.38	-397.91	1282.9	352.47
225	0.93333	-127.53	1255.4	346.67	-212.7	1518.8	508.93	-236.15	1532.8	182.09	-238.92	1814.9	328.93	-209.67	997.81	480.64	-184.07	1004.4	231.7	-399.86	1023	371.16	-389.31	1018	280.49	-306.54	926.56	531.68	-251.13	920.82	144.83	-294.41	1087.3	508.35	-271.69	1078.6	174.32	-409.5	987.21	338.75	-290.57	696.38	517.77	-249.66	616.54	467.59	-318.03	613.29	494.06	-224.57	698.88	494.6	-351.88	520.74	473.11	-339.92	508.26	339.74	-499.71	312.21	450.65	-459.63	231.61	450.07	-520.4	240.71	430.24	-437.17	304.45	467.96	-504.45	135.39	428.42	-484.91	160.9	340.59	-584.29	96.755	362.65	-577.17	62.833	336.34	-581.95	68.959	400.78	-424.43	35.916	466.63	-380.94	37.451	348.38	-319.32	46.398	396.93	-176.06	688.95	150.9	-80.043	645.97	185.68	-137.55	603.75	170.56	-111.28	730.14	168.47	-91.951	529.22	183.34	-90.54	320.2	184.72	-7.541	287.02	187.45	-68.618	252.1	204.25	-32.843	352.58	174.64	7.8151	129.55	212.02	38.816	158.84	294.59	-27.396	62.781	268.18	-3.8275	46.456	301.18	-15.204	36.77	241.5	153.03	92.935	175.64	175.43	120.83	290.96	226.64	152.08	232.15	-277.02	1558.1	354.69	-392.36	1282	352
226	0.9375	-121.93	1254.5	346.39	-207.28	1518.1	508.3	-230.65	1531.8	181.39	-233.57	1814.1	328	-203.98	997.16	480.59	-178.1	1003.5	231.64	-394.05	1022.1	370.75	-383.44	1017.1	280.08	-301.07	926.01	531.58	-245.09	919.8	144.77	-288.88	1086.6	508.13	-265.71	1077.5	174.05	-403.65	986.31	338.37	-285.66	695.84	518.09	-244.71	615.82	468.19	-313.16	612.72	494.43	-219.54	698.17	495.12	-347.39	520.26	473.51	-335.08	507.59	340.25	-497.1	313.1	450.93	-457.8	232.1	450.35	-518.45	241.8	430.44	-434.65	304.71	468.28	-503.54	136.23	428.63	-483.64	161.69	340.8	-583.7	98.315	362.82	-576.84	64.395	336.43	-581.55	70.395	400.92	-424.36	35.867	466.69	-380.84	37.453	348.45	-319.24	46.199	396.97	-170.81	687.84	151.15	-74.978	644.54	186.05	-132.62	602.52	170.91	-105.88	728.81	168.68	-87.222	527.89	183.56	-85.745	318.8	184.99	-2.7475	285.67	187.73	-63.789	250.72	204.53	-28.081	351.2	174.92	12.776	128.32	212.28	43.797	157.62	294.83	-22.344	61.862	268.54	1.1897	45.479	301.5	-10.232	35.851	241.82	157.96	91.742	175.89	180.39	119.65	291.19	231.55	150.9	232.37	-271.56	1557.2	353.98	-386.79	1281.1	351.51
227	0.94167	-116.31	1253.7	346.09	-201.86	1517.5	507.64	-225.14	1530.8	180.66	-228.2	1813.3	327.04	-198.25	996.54	480.52	-172.13	1002.6	231.57	-388.22	1021.2	370.36	-377.56	1016.2	279.69	-295.56	925.47	531.47	-239.05	918.82	144.69	-283.31	1085.9	507.9	-259.72	1076.5	173.77	-397.78	985.43	338	-280.65	695.3	518.41	-239.64	615.11	468.8	-308.18	612.15	494.82	-214.42	697.48	495.65	-342.75	519.78	473.94	-330.06	506.89	340.8	-494.38	314.04	451.23	-455.87	232.63	450.66	-516.4	242.94	430.65	-432.03	305.02	468.64	-502.57	137.14	428.85	-482.28	162.55	341.04	-583.04	99.996	363	-576.46	66.089	336.54	-581.1	71.947	401.06	-424.3	35.819	466.75	-380.75	37.456	348.53	-319.17	45.999	397.01	-165.5	686.8	151.41	-69.826	643.21	186.38	-127.6	601.38	171.26	-100.42	727.56	168.85	-82.422	526.62	183.76	-81.133	317.47	185.27	1.8121	284.28	188.03	-59.241	249.38	204.82	-23.461	349.82	175.21	17.268	127.07	212.54	48.349	156.32	295.09	-17.843	61.033	268.91	5.5955	44.545	301.83	-5.881	35.006	242.14	162.34	90.308	176.17	184.85	118.16	291.43	236	149.35	232.61	-266.09	1556.4	353.23	-381.19	1280.2	351.01
228	0.94583	-110.67	1252.9	345.77	-196.44	1516.8	506.96	-219.63	1529.8	179.9	-222.83	1812.5	326.06	-192.48	995.94	480.45	-166.16	1001.7	231.49	-382.38	1020.4	369.97	-371.68	1015.3	279.3	-290.01	924.94	531.34	-233.02	917.89	144.61	-277.71	1085.3	507.67	-253.73	1075.6	173.48	-391.9	984.59	337.63	-275.55	694.77	518.74	-234.43	614.42	469.45	-303.06	611.57	495.23	-209.2	696.83	496.18	-337.95	519.27	474.4	-324.85	506.15	341.4	-491.53	315.04	451.56	-453.85	233.22	450.99	-514.24	244.16	430.88	-429.3	305.35	469.02	-501.51	138.13	429.1	-480.83	163.46	341.31	-582.28	101.81	363.21	-576.01	67.926	336.66	-580.59	73.627	401.22	-424.24	35.775	466.82	-380.65	37.461	348.61	-319.1	45.797	397.05	-160.14	685.84	151.69	-64.596	641.96	186.66	-122.5	600.32	171.62	-94.908	726.39	168.97	-77.553	525.42	183.96	-76.688	316.23	185.53	6.1565	282.88	188.35	-54.952	248.1	205.11	-18.97	348.44	175.51	21.326	125.8	212.8	52.5	154.95	295.36	-13.862	60.302	269.28	9.4251	43.66	302.16	-2.1139	34.244	242.45	166.23	88.65	176.46	188.84	116.4	291.7	240.04	147.44	232.88	-260.62	1555.7	352.46	-375.58	1279.4	350.48
229	0.95	-105.01	1252.1	345.43	-191.02	1516.2	506.25	-214.11	1528.8	179.11	-217.46	1811.8	325.06	-186.69	995.36	480.36	-160.19	1000.9	231.4	-376.52	1019.6	369.6	-365.8	1014.5	278.93	-284.41	924.41	531.21	-227	917.02	144.52	-272.08	1084.6	507.43	-247.72	1074.6	173.19	-386	983.77	337.28	-270.33	694.25	519.08	-229.09	613.74	470.11	-297.8	610.98	495.66	-203.87	696.21	496.72	-332.98	518.76	474.89	-319.45	505.39	342.04	-488.54	316.1	451.91	-451.72	233.86	451.35	-511.96	245.45	431.13	-426.43	305.73	469.43	-500.37	139.2	429.37	-479.27	164.45	341.62	-581.41	103.77	363.43	-575.48	69.919	336.78	-580.01	75.446	401.39	-424.17	35.739	466.88	-380.55	37.468	348.69	-319.04	45.593	397.08	-154.73	684.95	151.99	-59.297	640.81	186.9	-117.34	599.34	171.99	-89.341	725.31	169.05	-72.621	524.29	184.15	-72.396	315.06	185.8	10.306	281.46	188.68	-50.9	246.88	205.39	-14.593	347.08	175.82	24.985	124.53	213.06	56.284	153.52	295.64	-10.362	59.674	269.66	12.719	42.833	302.47	1.1112	33.572	242.75	169.66	86.789	176.77	192.41	114.38	291.98	243.69	145.21	233.17	-255.14	1554.9	351.66	-369.95	1278.6	349.94
